<svg width="2618" height="1276" viewBox="0 0 2618 1276" fill="none" xmlns="http://www.w3.org/2000/svg">
<path fill-rule="evenodd" clip-rule="evenodd" d="M2618 430.351V1276H0V673.134C7.99912 677.449 16.5614 682.656 25.742 688.792L26.3549 689.296L26.3551 689.296C196.821 829.283 292.586 907.925 356.863 870.929C391.208 826.572 423.919 781.783 454.616 739.749C548.974 610.546 624.314 507.385 669.668 522.882C690.909 533.652 721.142 561.882 755.852 594.293C840.221 673.074 951.045 776.558 1023.51 714.049C1047.73 673.92 1070.11 633.5 1091.13 595.53C1162.22 467.157 1217.8 366.771 1276.47 400.172C1315.81 436.574 1342.1 468.162 1362.04 492.12C1400.47 538.291 1415.31 556.128 1454.51 525.488C1490.3 488.332 1523.8 449.173 1555.22 412.436C1645.48 306.931 1718.64 221.412 1779.66 260.74C1816.05 303.4 1846.69 352.465 1875.43 398.492C1954.13 524.506 2018.6 627.745 2147.79 514.398C2176.6 482.982 2201.63 450.826 2225.12 420.658C2287.15 340.976 2338.38 275.168 2419.83 273.515C2512.84 273.849 2542.37 318.751 2580.03 376.039C2591.3 393.165 2603.28 411.398 2617.91 429.878L2618 430.351Z" fill="white"/>
</svg>
