<svg width="1440" height="1000" viewBox="0 0 1440 1000" fill="none" xmlns="http://www.w3.org/2000/svg">
<path d="M29.2303 431.505C-42.646 356.369 -55.1051 419.479 -72.2613 551.195L12.9675 1246.8L1787.37 1029.4L1683.65 182.913C1642.58 102.424 1633.38 26.7927 1556.21 25.8875C1484.49 27.7259 1450.17 151.628 1383.82 265.535C1272.05 419.481 1234.99 170.491 1147.18 10.6179C1094.31 -42.6875 1028.68 130.684 941.008 273.905C903.241 320.179 900.718 254.909 826.54 147.982C777.723 104.436 733.522 285.385 666.771 460.646C601.95 548.408 486.384 305.438 439.616 268.231C401.098 247.472 330.147 434.782 241.819 614.806C200.973 651.524 139.338 572.564 29.6246 432.01L29.2303 431.505Z" fill="white"/>
</svg>
