<svg width="385" height="91" viewBox="0 0 385 91" fill="none" xmlns="http://www.w3.org/2000/svg">
<path d="M48.3 59.74C49 61.14 49.3733 62.33 49.42 63.31C49.4667 64.29 49.1633 65.1533 48.51 65.9C47.8567 66.6467 46.8067 67.3933 45.36 68.14C43.12 69.2133 41.3933 69.54 40.18 69.12C38.9667 68.7467 37.8233 67.4167 36.75 65.13L24.85 40.77L13.09 65.2C11.97 67.3933 10.8033 68.6767 9.59 69.05C8.37667 69.47 6.67333 69.1433 4.48 68.07C3.03333 67.37 1.96 66.6467 1.26 65.9C0.606667 65.1533 0.303333 64.29 0.35 63.31C0.396667 62.33 0.77 61.14 1.47 59.74L19.04 23.34C19.6 22.22 20.4167 21.3333 21.49 20.68C22.61 19.98 23.7533 19.63 24.92 19.63C25.76 19.63 26.53 19.7933 27.23 20.12C27.9767 20.4 28.6533 20.82 29.26 21.38C29.8667 21.94 30.3567 22.6167 30.73 23.41L48.3 59.74ZM13.79 58.48L19.11 47.56H30.66L35.98 58.48H13.79ZM58.1656 68.56C56.0656 68.56 54.5723 68.2567 53.6856 67.65C52.799 66.9967 52.2623 66.18 52.0756 65.2C51.9356 64.22 51.8656 63.2167 51.8656 62.19V39.16C51.8656 38.1333 51.959 37.1533 52.1456 36.22C52.3323 35.2867 52.869 34.54 53.7556 33.98C54.6423 33.3733 56.1356 33.07 58.2356 33.07C60.149 33.07 61.5256 33.3267 62.3656 33.84C63.2523 34.3067 63.8123 34.89 64.0456 35.59C64.279 36.29 64.3723 36.9433 64.3256 37.55C64.3256 38.11 64.3723 38.46 64.4656 38.6L63.9056 39.02C63.859 38.32 64.1156 37.62 64.6756 36.92C65.2823 36.22 66.0523 35.59 66.9856 35.03C67.9656 34.4233 68.9923 33.9567 70.0656 33.63C71.1856 33.2567 72.2356 33.07 73.2156 33.07C75.549 33.07 77.6023 33.5133 79.3756 34.4C81.149 35.2867 82.619 36.5467 83.7856 38.18C84.999 39.7667 85.909 41.6333 86.5156 43.78C87.1223 45.9267 87.4256 48.26 87.4256 50.78V62.26C87.4256 63.2867 87.3323 64.29 87.1456 65.27C86.959 66.25 86.4223 67.0433 85.5356 67.65C84.6956 68.2567 83.2023 68.56 81.0556 68.56C78.909 68.56 77.3923 68.2567 76.5056 67.65C75.619 66.9967 75.0823 66.18 74.8956 65.2C74.709 64.22 74.6156 63.2167 74.6156 62.19V50.78C74.6156 49.7067 74.4056 48.7967 73.9856 48.05C73.6123 47.3033 73.0523 46.7433 72.3056 46.37C71.6056 45.95 70.719 45.74 69.6456 45.74C68.619 45.74 67.709 45.95 66.9156 46.37C66.169 46.79 65.5856 47.3733 65.1656 48.12C64.7456 48.8667 64.5356 49.7533 64.5356 50.78V62.26C64.5356 63.2867 64.4423 64.29 64.2556 65.27C64.069 66.25 63.5323 67.0433 62.6456 67.65C61.8056 68.2567 60.3123 68.56 58.1656 68.56ZM109.014 69.26C106.867 69.26 104.697 68.84 102.504 68C100.311 67.1133 98.2807 65.8767 96.4141 64.29C94.5941 62.6567 93.1241 60.72 92.0041 58.48C90.9307 56.1933 90.3941 53.65 90.3941 50.85C90.3941 48.2833 90.8841 45.88 91.8641 43.64C92.8441 41.4 94.1741 39.44 95.8541 37.76C97.5807 36.0333 99.5407 34.68 101.734 33.7C103.974 32.72 106.354 32.23 108.874 32.23C112.327 32.23 115.454 33.07 118.254 34.75C121.054 36.3833 123.294 38.6 124.974 41.4C126.654 44.2 127.494 47.3267 127.494 50.78C127.494 53.72 126.934 56.3333 125.814 58.62C124.694 60.9067 123.224 62.8433 121.404 64.43C119.584 66.0167 117.577 67.2067 115.384 68C113.237 68.84 111.114 69.26 109.014 69.26ZM108.874 56.45C109.574 56.45 110.367 56.2867 111.254 55.96C112.187 55.5867 112.981 54.98 113.634 54.14C114.334 53.3 114.684 52.1567 114.684 50.71C114.684 49.5433 114.427 48.54 113.914 47.7C113.447 46.86 112.771 46.2067 111.884 45.74C110.997 45.2733 109.971 45.04 108.804 45.04C107.777 45.04 106.844 45.2967 106.004 45.81C105.164 46.2767 104.487 46.9533 103.974 47.84C103.461 48.68 103.204 49.66 103.204 50.78C103.204 52.18 103.531 53.3 104.184 54.14C104.837 54.98 105.607 55.5867 106.494 55.96C107.381 56.2867 108.174 56.45 108.874 56.45ZM148.562 68.63C146.089 68.63 143.942 68.35 142.122 67.79C140.302 67.23 138.785 66.3667 137.572 65.2C136.405 64.0333 135.519 62.5633 134.912 60.79C134.352 59.0167 134.072 56.94 134.072 54.56V27.4C134.072 26.3267 134.165 25.3467 134.352 24.46C134.539 23.5267 135.075 22.78 135.962 22.22C136.849 21.6133 138.342 21.31 140.442 21.31C142.495 21.31 143.965 21.6367 144.852 22.29C145.739 22.8967 146.275 23.69 146.462 24.67C146.649 25.65 146.742 26.6533 146.742 27.68V53.93C146.742 54.4433 146.765 54.8867 146.812 55.26C146.905 55.5867 147.022 55.8433 147.162 56.03C147.302 56.2167 147.489 56.3567 147.722 56.45C147.955 56.5433 148.259 56.59 148.632 56.59C149.845 56.59 150.919 56.6833 151.852 56.87C152.832 57.0567 153.579 57.5467 154.092 58.34C154.652 59.1333 154.932 60.4633 154.932 62.33C154.932 64.43 154.605 65.9233 153.952 66.81C153.299 67.6967 152.482 68.21 151.502 68.35C150.522 68.5367 149.542 68.63 148.562 68.63ZM132.602 33.49H140.792L150.452 33.14C151.479 33.14 152.459 33.2333 153.392 33.42C154.372 33.6067 155.165 34.1433 155.772 35.03C156.425 35.9167 156.752 37.4333 156.752 39.58C156.752 41.54 156.425 42.9633 155.772 43.85C155.165 44.7367 154.372 45.2967 153.392 45.53C152.459 45.7633 151.455 45.88 150.382 45.88L141.492 45.67H132.322C130.735 45.5767 129.639 45.0633 129.032 44.13C128.425 43.1967 128.122 41.6567 128.122 39.51C128.122 37.5033 128.495 36.01 129.242 35.03C129.989 34.0033 131.109 33.49 132.602 33.49ZM187.952 68.49C185.852 68.49 184.288 68.14 183.262 67.44C182.282 66.74 181.815 65.9467 181.862 65.06H182.842C182.608 65.3867 182.142 65.83 181.442 66.39C180.788 66.9033 179.902 67.3933 178.782 67.86C177.662 68.28 176.285 68.49 174.652 68.49C172.552 68.49 170.522 68.0233 168.562 67.09C166.648 66.11 164.922 64.78 163.382 63.1C161.888 61.42 160.698 59.53 159.812 57.43C158.925 55.2833 158.482 53.0433 158.482 50.71C158.482 48.4233 158.925 46.23 159.812 44.13C160.698 42.03 161.912 40.1633 163.452 38.53C164.992 36.85 166.718 35.5433 168.632 34.61C170.545 33.63 172.552 33.14 174.652 33.14C176.238 33.14 177.568 33.3733 178.642 33.84C179.762 34.3067 180.648 34.82 181.302 35.38C182.002 35.94 182.468 36.4067 182.702 36.78H181.932C181.885 35.6133 182.352 34.7033 183.332 34.05C184.358 33.3967 185.922 33.07 188.022 33.07C190.122 33.07 191.592 33.3967 192.432 34.05C193.318 34.6567 193.855 35.45 194.042 36.43C194.228 37.41 194.322 38.4133 194.322 39.44V62.19C194.322 63.2167 194.228 64.22 194.042 65.2C193.855 66.18 193.318 66.9733 192.432 67.58C191.592 68.1867 190.098 68.49 187.952 68.49ZM176.402 55.82C177.288 55.82 178.082 55.5867 178.782 55.12C179.528 54.6533 180.112 54.0467 180.532 53.3C180.998 52.5067 181.232 51.6667 181.232 50.78C181.232 49.8467 180.998 49.0067 180.532 48.26C180.112 47.5133 179.528 46.9067 178.782 46.44C178.035 45.9733 177.195 45.74 176.262 45.74C175.328 45.74 174.465 45.9733 173.672 46.44C172.925 46.9067 172.318 47.5367 171.852 48.33C171.385 49.0767 171.152 49.9167 171.152 50.85C171.152 51.7367 171.385 52.5533 171.852 53.3C172.365 54.0467 173.018 54.6533 173.812 55.12C174.605 55.5867 175.468 55.82 176.402 55.82ZM243.391 68.49C241.291 68.49 239.728 68.14 238.701 67.44C237.721 66.74 237.254 65.9467 237.301 65.06H238.281C238.048 65.3867 237.581 65.83 236.881 66.39C236.228 66.9033 235.341 67.3933 234.221 67.86C233.101 68.28 231.724 68.49 230.091 68.49C227.991 68.49 225.961 68.0233 224.001 67.09C222.088 66.11 220.361 64.78 218.821 63.1C217.328 61.42 216.138 59.53 215.251 57.43C214.364 55.2833 213.921 53.0433 213.921 50.71C213.921 48.4233 214.364 46.23 215.251 44.13C216.138 42.03 217.351 40.1633 218.891 38.53C220.431 36.85 222.158 35.5433 224.071 34.61C225.984 33.63 227.991 33.14 230.091 33.14C231.678 33.14 233.008 33.3733 234.081 33.84C235.201 34.3067 236.088 34.82 236.741 35.38C237.441 35.94 237.908 36.4067 238.141 36.78H237.371C237.324 35.6133 237.791 34.7033 238.771 34.05C239.798 33.3967 241.361 33.07 243.461 33.07C245.561 33.07 247.031 33.3967 247.871 34.05C248.758 34.6567 249.294 35.45 249.481 36.43C249.668 37.41 249.761 38.4133 249.761 39.44V62.19C249.761 63.2167 249.668 64.22 249.481 65.2C249.294 66.18 248.758 66.9733 247.871 67.58C247.031 68.1867 245.538 68.49 243.391 68.49ZM231.841 55.82C232.728 55.82 233.521 55.5867 234.221 55.12C234.968 54.6533 235.551 54.0467 235.971 53.3C236.438 52.5067 236.671 51.6667 236.671 50.78C236.671 49.8467 236.438 49.0067 235.971 48.26C235.551 47.5133 234.968 46.9067 234.221 46.44C233.474 45.9733 232.634 45.74 231.701 45.74C230.768 45.74 229.904 45.9733 229.111 46.44C228.364 46.9067 227.758 47.5367 227.291 48.33C226.824 49.0767 226.591 49.9167 226.591 50.85C226.591 51.7367 226.824 52.5533 227.291 53.3C227.804 54.0467 228.458 54.6533 229.251 55.12C230.044 55.5867 230.908 55.82 231.841 55.82ZM260.096 68.63C257.996 68.63 256.503 68.3267 255.616 67.72C254.729 67.0667 254.193 66.25 254.006 65.27C253.866 64.29 253.796 63.2867 253.796 62.26V39.44C253.796 38.4133 253.889 37.4333 254.076 36.5C254.263 35.52 254.799 34.7267 255.686 34.12C256.573 33.4667 258.066 33.14 260.166 33.14C262.266 33.14 263.736 33.4667 264.576 34.12C265.463 34.7267 265.999 35.52 266.186 36.5C266.373 37.48 266.466 38.5067 266.466 39.58V62.33C266.466 63.3567 266.373 64.36 266.186 65.34C265.999 66.32 265.463 67.1133 264.576 67.72C263.736 68.3267 262.243 68.63 260.096 68.63ZM256.876 31.6C256.036 31.6 255.313 31.25 254.706 30.55C254.099 29.85 253.563 28.7767 253.096 27.33C252.489 25.37 252.373 23.9233 252.746 22.99C253.119 22.01 254.146 21.2633 255.826 20.75L268.706 16.97C269.546 16.97 270.269 17.32 270.876 18.02C271.483 18.72 271.996 19.7933 272.416 21.24C273.069 23.1067 273.186 24.53 272.766 25.51C272.346 26.49 271.343 27.2367 269.756 27.75L256.876 31.6ZM277.127 51.48C275.027 51.48 273.534 51.2 272.647 50.64C271.761 50.08 271.224 49.38 271.037 48.54C270.851 47.6533 270.757 46.7433 270.757 45.81V25.16C270.757 24.2267 270.851 23.3167 271.037 22.43C271.224 21.5433 271.761 20.82 272.647 20.26C273.534 19.6533 275.051 19.35 277.197 19.35C279.344 19.35 280.837 19.6533 281.677 20.26C282.564 20.82 283.101 21.5667 283.287 22.5C283.474 23.3867 283.567 24.2967 283.567 25.23V45.88C283.567 46.8133 283.474 47.7233 283.287 48.61C283.101 49.45 282.564 50.15 281.677 50.71C280.791 51.2233 279.274 51.48 277.127 51.48ZM277.127 68.7C274.421 68.7 272.624 68.1867 271.737 67.16C270.851 66.0867 270.407 64.3367 270.407 61.91C270.407 60.8833 270.501 59.8567 270.687 58.83C270.921 57.8033 271.504 56.9633 272.437 56.31C273.371 55.61 274.957 55.26 277.197 55.26C279.951 55.26 281.747 55.7733 282.587 56.8C283.427 57.8267 283.847 59.5767 283.847 62.05C283.847 63.0767 283.754 64.1033 283.567 65.13C283.381 66.1567 282.821 67.02 281.887 67.72C280.954 68.3733 279.367 68.7 277.127 68.7Z" fill="white"/>
<path d="M383.768 35.3801C383.622 34.7424 383.353 34.14 382.976 33.6072C382.6 33.0744 382.122 32.6217 381.572 32.2748C381.021 31.928 380.409 31.6938 379.769 31.5858C379.128 31.4777 378.473 31.4978 377.841 31.645C377.209 31.7921 376.611 32.0634 376.083 32.4434C375.554 32.8234 375.105 33.3046 374.761 33.8595C374.417 34.4144 374.185 35.0323 374.078 35.6777C373.97 36.3231 373.99 36.9835 374.136 37.6212C375.991 45.119 374.931 53.0483 371.173 59.7831C363.023 73.9766 344.747 78.9568 330.669 70.7395C316.592 62.7712 311.652 44.3445 319.802 30.1509C327.952 15.9573 346.228 10.9772 360.306 19.1945C360.857 19.5215 361.467 19.7358 362.101 19.8252C362.734 19.9145 363.379 19.8772 363.998 19.7154C364.617 19.5535 365.199 19.2703 365.709 18.8818C366.22 18.4934 366.65 18.0073 366.974 17.4514C367.298 16.8955 367.511 16.2806 367.6 15.6419C367.688 15.0032 367.651 14.3531 367.491 13.7288C367.33 13.1045 367.049 12.5181 366.664 12.0033C366.279 11.4884 365.797 11.0551 365.245 10.7281C346.228 -0.477298 322.272 5.99696 311.158 25.1707C307.888 30.8347 306.051 37.223 305.808 43.7721C305.566 50.3212 306.926 56.8298 309.768 62.7238C312.61 68.6178 316.847 73.716 322.106 77.5686C327.364 81.4212 333.482 83.9099 339.92 84.8151C346.357 85.7203 352.917 85.0142 359.02 82.759C365.123 80.5039 370.582 76.769 374.915 71.8839C379.248 66.9988 382.323 61.1136 383.866 54.7475C385.41 48.3814 385.377 41.73 383.768 35.3801ZM329.681 40.8583C328.568 40.1319 327.214 39.8812 325.917 40.1613C324.62 40.4415 323.486 41.2297 322.766 42.3524C322.045 43.4751 321.797 44.8404 322.075 46.1479C322.353 47.4555 323.134 48.5982 324.248 49.3246L344.006 61.7751C344.821 62.2825 345.764 62.5419 346.722 62.5222C347.486 62.506 348.237 62.3189 348.92 61.9744C349.604 61.6299 350.203 61.1366 350.674 60.5301L376.606 26.9138C378.335 24.6727 377.841 21.6846 375.618 19.9415C373.395 18.1984 370.432 18.6965 368.703 20.9375L345.487 50.8187L329.681 40.8583Z" fill="white"/>
</svg>
