<svg width="667" height="508" viewBox="0 0 667 508" fill="none" xmlns="http://www.w3.org/2000/svg">
<g clip-path="url(#clip0_4_126)">
<path d="M266.9 105.347H264.467V38.6201C264.467 33.5484 263.469 28.5264 261.53 23.8408C259.591 19.1552 256.749 14.8978 253.167 11.3116C249.585 7.72537 245.332 4.88063 240.651 2.93979C235.97 0.998947 230.953 4.29711e-06 225.887 0H84.6624C74.4304 -1.9526e-05 64.6174 4.06884 57.3823 11.3115C50.1471 18.5541 46.0824 28.3773 46.0824 38.6199V404.692C46.0824 409.764 47.0803 414.786 49.0191 419.471C50.9579 424.157 53.7997 428.414 57.3822 432C60.9647 435.587 65.2177 438.431 69.8984 440.372C74.5791 442.313 79.5959 443.312 84.6623 443.312H225.887C236.119 443.312 245.932 439.243 253.167 432.001C260.402 424.758 264.467 414.935 264.467 404.692V152.845H266.9V105.347Z" fill="#3F3D56"/>
<path d="M227.443 10.0476H209.009C209.857 12.1282 210.18 14.3855 209.951 16.6208C209.722 18.8561 208.948 21.0006 207.696 22.8656C206.443 24.7306 204.752 26.2587 202.771 27.3153C200.791 28.372 198.58 28.9248 196.336 28.9249H115.43C113.185 28.9248 110.975 28.372 108.994 27.3154C107.013 26.2587 105.322 24.7306 104.07 22.8656C102.818 21.0007 102.043 18.8561 101.814 16.6208C101.585 14.3855 101.909 12.1282 102.757 10.0476H85.5389C81.7554 10.0476 78.0089 10.7936 74.5134 12.243C71.0178 13.6924 67.8417 15.8168 65.1664 18.4949C62.491 21.1731 60.3688 24.3525 58.9209 27.8516C57.473 31.3508 56.7278 35.1011 56.7278 38.8886V404.424C56.7278 408.211 57.473 411.961 58.9209 415.46C60.3688 418.96 62.491 422.139 65.1663 424.817C67.8417 427.495 71.0178 429.62 74.5133 431.069C78.0089 432.519 81.7553 433.265 85.5388 433.265H227.443C231.227 433.265 234.973 432.519 238.469 431.069C241.964 429.62 245.141 427.495 247.816 424.817C250.491 422.139 252.613 418.96 254.061 415.461C255.509 411.961 256.255 408.211 256.255 404.424V38.8886C256.255 35.1011 255.509 31.3508 254.061 27.8516C252.613 24.3525 250.491 21.1731 247.816 18.4949C245.141 15.8168 241.964 13.6924 238.469 12.243C234.973 10.7936 231.227 10.0476 227.443 10.0476Z" fill="white"/>
<path d="M312.165 443.375H0.817186C0.600455 443.375 0.3926 443.289 0.239348 443.136C0.0860955 442.982 0 442.774 0 442.557C0 442.34 0.0860955 442.132 0.239348 441.979C0.3926 441.825 0.600455 441.739 0.817186 441.739H312.165C312.382 441.739 312.59 441.825 312.743 441.979C312.896 442.132 312.982 442.34 312.982 442.557C312.982 442.774 312.896 442.982 312.743 443.136C312.59 443.289 312.382 443.375 312.165 443.375Z" fill="#CBCBCB"/>
<path d="M156.491 282.778C194.603 282.778 225.499 251.85 225.499 213.698C225.499 175.547 194.603 144.618 156.491 144.618C118.379 144.618 87.4829 175.547 87.4829 213.698C87.4829 251.85 118.379 282.778 156.491 282.778Z" fill="#6DC843"/>
<path d="M149.653 240.05C148.1 240.053 146.589 239.55 145.347 238.618L145.27 238.56L129.052 226.141C128.301 225.565 127.671 224.846 127.197 224.025C126.724 223.205 126.416 222.299 126.292 221.36C126.168 220.421 126.23 219.466 126.475 218.551C126.719 217.636 127.142 216.778 127.717 216.026C128.293 215.274 129.011 214.643 129.831 214.169C130.65 213.695 131.555 213.387 132.493 213.263C133.432 213.139 134.385 213.201 135.299 213.446C136.214 213.691 137.071 214.113 137.822 214.69L148.327 222.754L173.15 190.336C173.725 189.584 174.443 188.953 175.262 188.479C176.081 188.006 176.986 187.698 177.924 187.574C178.861 187.45 179.815 187.512 180.729 187.757C181.642 188.001 182.499 188.424 183.25 189L183.252 189.002L183.098 189.216L183.256 189.002C184.771 190.167 185.762 191.886 186.012 193.782C186.262 195.678 185.75 197.596 184.589 199.115L155.392 237.228C154.716 238.106 153.848 238.817 152.854 239.305C151.859 239.793 150.766 240.045 149.659 240.042L149.653 240.05Z" fill="white"/>
<path d="M567.327 450.165C568.167 448.806 569.155 447.545 570.274 446.406C570.735 445.927 571.222 445.476 571.724 445.036C574.775 442.318 578.494 440.462 582.5 439.659C586.505 438.857 590.652 439.137 594.513 440.47C598.375 441.803 601.812 444.142 604.471 447.246C607.13 450.35 608.915 454.107 609.643 458.131C613.013 445.654 604.24 433.364 595.419 423.924C586.594 414.487 576.507 404.135 576.557 391.204C576.582 384.009 580.098 377.59 585.407 372.831C585.571 372.687 585.734 372.543 585.901 372.404C592.318 366.898 600.573 364.018 609.018 364.339C624.707 365.181 638.406 375.736 647.92 388.257C663.233 408.403 669.943 436.682 659.223 459.615C649.793 479.785 629.683 491.762 609.158 501.391C606.292 502.736 603.432 504.04 600.577 505.304C600.558 505.309 600.537 505.322 600.518 505.328C600.381 505.388 600.244 505.448 600.115 505.511C599.526 505.771 598.936 506.031 598.352 506.288L598.623 506.465L599.467 507.012C599.174 506.835 598.885 506.663 598.592 506.485C598.505 506.432 598.413 506.381 598.326 506.327C588.246 500.272 578.025 493.867 571.061 484.414C563.838 474.599 560.934 460.541 567.327 450.165Z" fill="#F1F1F1"/>
<path d="M634.584 427.372C636.816 432.455 638.296 437.837 638.977 443.348C639.513 448.262 639.311 453.228 638.38 458.082C636.378 468.058 632.012 477.406 625.65 485.341C620.85 491.366 615.309 496.758 609.158 501.391C606.292 502.736 603.432 504.04 600.577 505.304C600.558 505.309 600.538 505.323 600.519 505.328C600.381 505.388 600.244 505.449 600.115 505.511C599.526 505.771 598.936 506.031 598.352 506.288L598.623 506.465L599.467 507.012C599.174 506.835 598.885 506.663 598.592 506.485C598.505 506.432 598.413 506.381 598.327 506.327C600.545 498.559 600.871 490.372 599.277 482.452C597.684 474.532 594.217 467.109 589.168 460.806C584.092 454.583 577.618 449.649 570.274 446.406C570.735 445.927 571.222 445.476 571.724 445.037C574.552 446.337 577.26 447.885 579.817 449.663C588.959 455.988 595.824 465.092 599.395 475.627C602.584 485.184 602.982 495.454 600.543 505.23C601.049 504.899 601.557 504.559 602.051 504.221C611.442 497.882 620.097 490.268 626.616 480.931C632.239 473.04 635.837 463.886 637.094 454.276C638.344 443.777 635.719 433.453 631.037 424.086C625.867 414.064 619.352 404.797 611.673 396.543C603.96 388.06 595.24 380.554 585.706 374.192C585.491 374.047 585.34 373.825 585.285 373.572C585.229 373.318 585.273 373.053 585.407 372.831C585.509 372.629 585.687 372.476 585.901 372.404C586.011 372.376 586.124 372.373 586.235 372.396C586.345 372.418 586.449 372.465 586.539 372.533C587.716 373.319 588.882 374.112 590.035 374.929C599.636 381.735 608.356 389.708 615.993 398.665C623.373 407.3 630.09 416.892 634.584 427.372Z" fill="white"/>
<path d="M429.057 32.0756C437.151 32.0756 443.712 25.5074 443.712 17.4049C443.712 9.30255 437.151 2.73425 429.057 2.73425C420.963 2.73425 414.401 9.30255 414.401 17.4049C414.401 25.5074 420.963 32.0756 429.057 32.0756Z" fill="#F1F1F1"/>
<path d="M611.289 228.404C616.224 228.404 620.225 224.4 620.225 219.46C620.225 214.52 616.224 210.515 611.289 210.515C606.355 210.515 602.354 214.52 602.354 219.46C602.354 224.4 606.355 228.404 611.289 228.404Z" fill="#F1F1F1"/>
<path d="M349.79 252.945C354.725 252.945 358.725 248.941 358.725 244.001C358.725 239.061 354.725 235.056 349.79 235.056C344.855 235.056 340.855 239.061 340.855 244.001C340.855 248.941 344.855 252.945 349.79 252.945Z" fill="#F1F1F1"/>
<path d="M354.835 508H666.183C666.4 508 666.607 507.914 666.761 507.76C666.914 507.607 667 507.399 667 507.182C667 506.965 666.914 506.757 666.761 506.604C666.607 506.45 666.4 506.364 666.183 506.364H354.835C354.618 506.364 354.41 506.45 354.257 506.604C354.104 506.757 354.018 506.965 354.018 507.182C354.018 507.399 354.104 507.607 354.257 507.76C354.41 507.914 354.618 508 354.835 508Z" fill="#CBCBCB"/>
<path d="M631.824 79.0508C632.232 76.1452 631.562 73.1905 629.94 70.7464C628.318 68.3024 625.857 66.5389 623.023 65.7901C620.189 65.0413 617.179 65.3592 614.563 66.6836C611.947 68.008 609.908 70.2468 608.831 72.9759L583.566 101.971L590.979 122.697L616.388 88.8178C618.046 89.3495 619.8 89.5108 621.527 89.2903C623.254 89.0699 624.912 88.473 626.384 87.5418C627.855 86.6106 629.105 85.3677 630.045 83.9007C630.985 82.4337 631.592 80.7782 631.824 79.0508Z" fill="#FFB7B7"/>
<path d="M527.096 191.869L610.963 102.271L599.651 84.2675L494.46 173.322L527.096 191.869Z" fill="#3F3D56"/>
<path d="M508.378 137.43C524.625 137.43 537.797 124.245 537.797 107.981C537.797 91.7163 524.625 78.5314 508.378 78.5314C492.13 78.5314 478.959 91.7163 478.959 107.981C478.959 124.245 492.13 137.43 508.378 137.43Z" fill="#2F2E41"/>
<path d="M510.743 91.3444C517.073 84.9183 524.734 79.9594 533.185 76.8168C538.61 74.8049 544.515 73.5619 550.187 74.7044C555.858 75.8469 561.222 79.7747 562.804 85.3452C564.098 89.9003 562.762 94.8048 560.754 99.0927C558.746 103.381 556.066 107.357 554.442 111.805C552.785 116.343 552.287 121.224 552.992 126.004C553.698 130.785 555.585 135.313 558.482 139.178C561.379 143.043 565.194 146.122 569.582 148.136C573.97 150.151 578.79 151.036 583.607 150.713C578.034 151.461 572.897 154.082 567.45 155.477C562.003 156.873 555.574 156.778 551.526 152.872C547.243 148.739 547.157 142.019 547.365 136.067C547.672 127.22 547.98 118.373 548.288 109.526C548.445 105.014 548.579 100.358 546.954 96.1468C545.328 91.9357 541.465 88.2481 536.956 88.2865C533.538 88.3155 530.513 90.3882 527.772 92.4323C525.03 94.4764 522.129 96.6572 518.725 96.9613C515.32 97.2653 511.433 94.7432 511.688 91.3312L510.743 91.3444Z" fill="#2F2E41"/>
<path d="M396.644 305.719C393.819 306.504 390.805 306.225 388.173 304.935C385.54 303.644 383.472 301.432 382.36 298.717C381.248 296.002 381.17 292.973 382.14 290.204C383.11 287.435 385.06 285.118 387.623 283.693L413.037 254.83L434.533 259.479L404.3 289.123C405.043 290.699 405.432 292.419 405.439 294.162C405.447 295.905 405.072 297.628 404.342 299.21C403.612 300.792 402.545 302.195 401.214 303.32C399.884 304.444 398.324 305.263 396.644 305.719H396.644Z" fill="#FFB7B7"/>
<path d="M480.259 202.386L416.915 281.981L397.606 273.107L472.06 157.073L480.259 202.386Z" fill="#3F3D56"/>
<path d="M429.716 442.73L414.619 442.493L416.435 494.001H429.713L429.716 442.73Z" fill="#FFB7B7"/>
<path d="M433.101 489.661L406.95 489.66H406.949C402.529 489.66 398.29 491.418 395.165 494.547C392.039 497.675 390.284 501.918 390.283 506.343V506.885L433.1 506.886L433.101 489.661Z" fill="#2F2E41"/>
<path d="M529.672 429.069L513.18 439.667L546.168 479.395L557.342 472.213L529.672 429.069Z" fill="#FFB7B7"/>
<path d="M557.85 466.729L535.844 480.872L535.843 480.873C532.124 483.263 529.506 487.035 528.565 491.358C527.623 495.681 528.436 500.201 530.824 503.924L531.116 504.38L567.146 481.224L557.85 466.729Z" fill="#2F2E41"/>
<path d="M535.547 271.784C535.547 271.784 498.904 149.956 487.129 148.31C475.353 146.664 456.38 179.57 456.38 179.57C431.78 210.989 406.414 312.763 406.414 312.763C406.414 312.763 448.7 315.412 479.612 331.875C510.523 348.338 547.003 331.042 547.003 331.042L535.547 271.784Z" fill="#3F3D56"/>
<path opacity="0.1" d="M535.547 271.784C535.547 271.784 498.904 149.956 487.129 148.31C475.353 146.664 461.199 179.903 461.199 179.903C448.941 230.622 406.414 312.763 406.414 312.763C406.414 312.763 448.7 315.412 479.612 331.875C510.523 348.338 547.003 331.041 547.003 331.041L535.547 271.784Z" fill="black"/>
<path d="M505.485 235.334V296.552L512.681 385.23L548.638 452.309L531.477 464.579L482.446 400.773L463.053 337.417L432.597 477.668L409.716 476.032L425.607 281.576L455.762 226.841L505.485 235.334Z" fill="#2F2E41"/>
<path d="M468.54 176.123C457.099 187.575 467.723 199.846 467.723 199.846L454.648 229.295L506.131 243.202L524.122 162.725L511.864 149.636C487.348 148.818 487.335 148.31 487.335 148.31C483.04 152.517 468.54 176.123 468.54 176.123Z" fill="#6DC843"/>
<path d="M526.195 154.387C523.857 152.66 521.199 151.413 518.377 150.721C515.554 150.029 512.622 149.904 509.751 150.354C506.879 150.804 504.126 151.819 501.649 153.342C499.173 154.865 497.023 156.864 495.324 159.225C482.382 177.264 470.414 206.393 486.903 242.723C513.379 301.057 536.419 330.919 545.786 330.916C546.195 330.919 546.601 330.855 546.99 330.726C552.755 328.768 561.091 319.002 562.6 310.396C563.14 307.316 563.012 303.025 559.332 300.079C548.761 291.615 529.784 265.262 523.864 230.575C520.593 211.409 526.937 193.95 532.835 182.68C535.327 178.016 536.055 172.61 534.888 167.452C533.721 162.294 530.736 157.73 526.48 154.597L526.195 154.387Z" fill="#3F3D56"/>
<path d="M509.891 134.537C520.385 128.794 524.242 115.623 518.505 105.117C512.769 94.612 499.611 90.7512 489.116 96.4939C478.622 102.237 474.765 115.408 480.502 125.913C486.239 136.419 499.396 140.28 509.891 134.537Z" fill="#FFB7B7"/>
<path d="M469.048 113.876H500.318L500.639 109.382L502.242 113.876H507.057L507.693 104.969L510.87 113.876H520.187V113.435C520.18 107.234 517.716 101.289 513.336 96.904C508.956 92.5191 503.017 90.0527 496.822 90.0457H492.413C486.219 90.0526 480.28 92.5191 475.9 96.904C471.519 101.289 469.055 107.234 469.048 113.435V113.876Z" fill="#2F2E41"/>
<path d="M515.463 130.03L528.808 125.696V93.256H503.602L504.226 93.8797C512.908 102.56 522.564 133.356 515.463 130.03Z" fill="#2F2E41"/>
</g>
<defs>
<clipPath id="clip0_4_126">
<rect width="667" height="508" fill="white"/>
</clipPath>
</defs>
</svg>
